<svg xmlns="http://www.w3.org/2000/svg" xmlns:xlink="http://www.w3.org/1999/xlink" width="1024" zoomAndPan="magnify" viewBox="0 0 768 767.999994" height="1024" preserveAspectRatio="xMidYMid meet" version="1.0"><defs><clipPath id="f661205987"><path d="M 230.398438 253.578125 L 537.898438 253.578125 L 537.898438 514.578125 L 230.398438 514.578125 Z M 230.398438 253.578125 " clip-rule="nonzero"/></clipPath></defs><g clip-path="url(#f661205987)"><path fill="#231f20" d="M 537.324219 324.183594 L 507.578125 406.988281 C 507.570312 407.003906 507.5625 407.023438 507.554688 407.039062 C 507.539062 407.082031 507.515625 407.125 507.496094 407.167969 C 507.464844 407.242188 507.425781 407.3125 507.382812 407.378906 C 507.359375 407.421875 507.335938 407.460938 507.308594 407.5 C 507.253906 407.574219 507.195312 407.644531 507.132812 407.710938 C 507.109375 407.734375 507.089844 407.761719 507.066406 407.785156 C 506.976562 407.875 506.875 407.953125 506.769531 408.027344 C 506.761719 408.03125 506.757812 408.039062 506.75 408.042969 C 506.738281 408.050781 506.726562 408.050781 506.714844 408.058594 C 506.632812 408.109375 506.550781 408.15625 506.460938 408.199219 C 506.375 408.238281 506.285156 408.273438 506.195312 408.300781 C 506.179688 408.304688 506.160156 408.308594 506.140625 408.3125 C 506.050781 408.335938 505.960938 408.359375 505.863281 408.371094 C 505.769531 408.386719 505.675781 408.394531 505.582031 408.394531 C 505.539062 408.394531 505.492188 408.390625 505.449219 408.390625 L 469.664062 406.160156 L 479.597656 442.148438 C 479.773438 442.789062 479.636719 443.480469 479.230469 444.007812 L 425.425781 513.625 C 425.417969 513.636719 425.402344 513.644531 425.394531 513.65625 C 425.308594 513.761719 425.21875 513.855469 425.113281 513.941406 C 425.101562 513.953125 425.089844 513.96875 425.074219 513.984375 C 424.953125 514.078125 424.824219 514.160156 424.6875 514.226562 C 424.648438 514.246094 424.605469 514.257812 424.570312 514.273438 C 424.484375 514.308594 424.402344 514.347656 424.308594 514.375 C 424.296875 514.378906 424.28125 514.375 424.265625 514.378906 C 424.105469 514.421875 423.941406 514.445312 423.78125 514.445312 C 423.769531 514.445312 423.757812 514.449219 423.742188 514.449219 C 423.617188 514.449219 423.492188 514.4375 423.371094 514.414062 C 423.339844 514.410156 423.3125 514.398438 423.28125 514.390625 C 423.1875 514.371094 423.097656 514.347656 423.011719 514.316406 C 422.996094 514.308594 422.980469 514.308594 422.96875 514.300781 L 340.429688 481.777344 C 339.808594 481.535156 339.335938 481.011719 339.160156 480.367188 L 322.921875 421.535156 L 256.792969 421.039062 C 256.757812 421.039062 256.722656 421.03125 256.6875 421.03125 C 256.609375 421.027344 256.535156 421.023438 256.457031 421.007812 C 256.410156 421 256.367188 420.984375 256.320312 420.976562 C 256.253906 420.960938 256.191406 420.945312 256.125 420.925781 C 256.074219 420.90625 256.023438 420.882812 255.96875 420.859375 C 255.917969 420.835938 255.863281 420.816406 255.8125 420.789062 C 255.722656 420.742188 255.636719 420.6875 255.554688 420.625 C 255.542969 420.617188 255.53125 420.613281 255.523438 420.605469 C 255.417969 420.523438 255.328125 420.433594 255.242188 420.339844 C 255.210938 420.308594 255.183594 420.269531 255.15625 420.234375 C 255.101562 420.171875 255.054688 420.105469 255.011719 420.035156 C 254.984375 419.992188 254.960938 419.945312 254.9375 419.902344 C 254.898438 419.832031 254.871094 419.761719 254.839844 419.691406 C 254.824219 419.640625 254.804688 419.59375 254.789062 419.546875 C 254.78125 419.527344 254.773438 419.511719 254.769531 419.492188 L 230.667969 334.117188 C 230.484375 333.472656 230.617188 332.785156 231.019531 332.253906 L 276.144531 273.019531 C 276.148438 273.015625 276.152344 273.011719 276.15625 273.007812 C 276.246094 272.890625 276.351562 272.785156 276.460938 272.691406 C 276.5 272.65625 276.542969 272.628906 276.585938 272.601562 C 276.667969 272.542969 276.75 272.484375 276.839844 272.4375 C 276.890625 272.410156 276.945312 272.390625 276.996094 272.367188 C 277.082031 272.328125 277.171875 272.296875 277.261719 272.269531 C 277.320312 272.253906 277.378906 272.242188 277.4375 272.230469 C 277.476562 272.222656 277.511719 272.207031 277.554688 272.203125 C 277.609375 272.195312 277.667969 272.199219 277.722656 272.195312 C 277.761719 272.195312 277.796875 272.183594 277.832031 272.183594 C 277.839844 272.183594 277.84375 272.183594 277.847656 272.183594 L 365.832031 272.84375 C 366.777344 272.851562 367.601562 273.480469 367.859375 274.390625 L 380.628906 319.625 L 403.828125 255.046875 C 404.144531 254.15625 405.027344 253.589844 405.957031 253.644531 L 494.5 259.164062 C 494.53125 259.164062 494.566406 259.175781 494.597656 259.179688 C 494.703125 259.191406 494.808594 259.210938 494.910156 259.238281 C 494.960938 259.25 495.011719 259.265625 495.0625 259.285156 C 495.160156 259.316406 495.25 259.359375 495.339844 259.40625 C 495.386719 259.429688 495.433594 259.453125 495.476562 259.476562 C 495.570312 259.535156 495.65625 259.605469 495.742188 259.675781 C 495.773438 259.703125 495.808594 259.726562 495.839844 259.757812 C 495.949219 259.863281 496.050781 259.980469 496.140625 260.113281 L 537.097656 322.300781 C 537.464844 322.859375 537.550781 323.554688 537.324219 324.183594 Z M 537.324219 324.183594 " fill-opacity="1" fill-rule="nonzero"/></g><path fill="#c4391d" d="M 319.347656 408.589844 L 321.746094 417.28125 L 261.070312 416.828125 L 302.980469 361.816406 L 354.128906 362.199219 L 319.714844 406.726562 C 319.691406 406.757812 319.679688 406.792969 319.65625 406.820312 C 319.621094 406.875 319.578125 406.921875 319.550781 406.976562 C 319.53125 407.007812 319.519531 407.042969 319.503906 407.078125 C 319.476562 407.132812 319.453125 407.1875 319.429688 407.242188 C 319.394531 407.328125 319.367188 407.421875 319.34375 407.511719 C 319.328125 407.570312 319.316406 407.625 319.304688 407.679688 C 319.289062 407.78125 319.285156 407.882812 319.28125 407.984375 C 319.28125 408.035156 319.273438 408.085938 319.277344 408.132812 C 319.285156 408.28125 319.308594 408.429688 319.347656 408.574219 C 319.347656 408.578125 319.347656 408.585938 319.347656 408.589844 Z M 235.039062 333.980469 L 257.699219 414.25 L 299.601562 359.238281 L 276.945312 278.976562 Z M 373.519531 337.113281 C 373.800781 336.746094 374.1875 336.496094 374.609375 336.375 L 378.15625 326.503906 L 364.203125 277.078125 L 280.644531 276.449219 L 303.542969 357.574219 L 357.390625 357.976562 Z M 505.019531 401.558594 L 532.96875 323.75 L 494.929688 265.996094 L 466.980469 343.804688 Z M 458.515625 368.957031 C 458.546875 368.96875 458.570312 368.992188 458.601562 369.003906 C 458.699219 369.046875 458.792969 369.097656 458.882812 369.152344 C 458.929688 369.183594 458.972656 369.214844 459.015625 369.246094 C 459.09375 369.308594 459.167969 369.375 459.242188 369.449219 C 459.277344 369.484375 459.3125 369.519531 459.347656 369.558594 C 459.417969 369.644531 459.484375 369.734375 459.542969 369.832031 C 459.5625 369.867188 459.589844 369.898438 459.609375 369.933594 C 459.679688 370.070312 459.742188 370.214844 459.785156 370.367188 L 468.46875 401.832031 L 501.46875 403.886719 L 463.429688 346.136719 L 388.792969 341.488281 Z M 491.414062 263.226562 L 407.28125 257.980469 L 379.03125 336.625 L 463.164062 341.867188 Z M 324.570312 411.558594 L 342.972656 478.21875 L 420.566406 508.792969 L 402.167969 442.136719 Z M 406.261719 441.007812 L 424.660156 507.667969 L 475.21875 442.253906 L 456.820312 375.589844 Z M 454.328125 371.871094 L 375.902344 340.96875 L 324.804688 407.085938 L 403.226562 437.992188 Z M 454.328125 371.871094 " fill-opacity="1" fill-rule="nonzero"/></svg>